<?xml version="1.0" encoding="UTF-8" standalone="no"?><!DOCTYPE svg PUBLIC "-//W3C//DTD SVG 1.1//EN" "http://www.w3.org/Graphics/SVG/1.1/DTD/svg11.dtd"><svg width="100%" height="100%" viewBox="0 0 102 67" version="1.1" xmlns="http://www.w3.org/2000/svg" xmlns:xlink="http://www.w3.org/1999/xlink" xml:space="preserve" xmlns:serif="http://www.serif.com/" style="fill-rule:evenodd;clip-rule:evenodd;stroke-linejoin:round;stroke-miterlimit:2;"><g><path d="M9.451,10.167c0.938,0.175 1.71,0.644 2.315,1.408c0.604,0.763 0.906,1.638 0.906,2.625c0,0.891 -0.218,1.674 -0.656,2.351c-0.437,0.676 -1.07,1.205 -1.897,1.587c-0.827,0.381 -1.806,0.572 -2.936,0.572l-7.183,0l0,-16.658l6.873,0c1.13,0 2.104,0.183 2.924,0.549c0.819,0.366 1.44,0.875 1.861,1.528c0.422,0.652 0.633,1.392 0.633,2.219c-0,0.971 -0.259,1.782 -0.776,2.434c-0.517,0.653 -1.205,1.114 -2.064,1.385Zm-6.11,-1.241l3.055,-0c0.795,-0 1.408,-0.179 1.838,-0.537c0.429,-0.358 0.644,-0.871 0.644,-1.54c-0,-0.668 -0.215,-1.185 -0.644,-1.551c-0.43,-0.366 -1.043,-0.549 -1.838,-0.549l-3.055,0l0,4.177Zm3.365,7.064c0.812,-0 1.444,-0.191 1.897,-0.573c0.454,-0.382 0.681,-0.923 0.681,-1.623c-0,-0.716 -0.239,-1.277 -0.716,-1.682c-0.478,-0.406 -1.122,-0.609 -1.933,-0.609l-3.294,0l0,4.487l3.365,-0Z" style="fill-rule:nonzero;"/><path d="M26.634,5.489l-0,13.221l-3.365,0l-0,-1.67c-0.43,0.573 -0.991,1.022 -1.683,1.348c-0.692,0.326 -1.444,0.489 -2.255,0.489c-1.034,0 -1.949,-0.218 -2.745,-0.656c-0.795,-0.437 -1.42,-1.082 -1.873,-1.933c-0.454,-0.851 -0.68,-1.865 -0.68,-3.043l-0,-7.756l3.341,0l-0,7.279c-0,1.05 0.262,1.857 0.787,2.422c0.525,0.565 1.241,0.847 2.148,0.847c0.923,0 1.647,-0.282 2.172,-0.847c0.525,-0.565 0.788,-1.372 0.788,-2.422l-0,-7.279l3.365,0Z" style="fill-rule:nonzero;"/><path d="M33.912,5.274c0.987,0 1.854,0.195 2.602,0.585c0.748,0.39 1.336,0.895 1.766,1.515l-0,-1.885l3.365,0l-0,13.317c-0,1.225 -0.247,2.319 -0.74,3.281c-0.493,0.963 -1.233,1.727 -2.219,2.291c-0.987,0.565 -2.18,0.848 -3.58,0.848c-1.878,-0 -3.417,-0.438 -4.618,-1.313c-1.201,-0.875 -1.882,-2.068 -2.041,-3.58l3.318,0c0.175,0.605 0.553,1.086 1.133,1.444c0.581,0.358 1.285,0.537 2.112,0.537c0.971,-0 1.758,-0.29 2.363,-0.871c0.605,-0.581 0.907,-1.46 0.907,-2.637l-0,-2.053c-0.43,0.621 -1.022,1.138 -1.778,1.552c-0.756,0.413 -1.619,0.62 -2.59,0.62c-1.113,0 -2.131,-0.286 -3.054,-0.859c-0.923,-0.573 -1.651,-1.38 -2.184,-2.422c-0.533,-1.042 -0.799,-2.24 -0.799,-3.592c-0,-1.337 0.266,-2.522 0.799,-3.556c0.533,-1.034 1.257,-1.83 2.172,-2.387c0.915,-0.556 1.937,-0.835 3.066,-0.835Zm4.368,6.826c-0,-0.812 -0.159,-1.508 -0.477,-2.089c-0.319,-0.58 -0.748,-1.026 -1.289,-1.336c-0.541,-0.31 -1.122,-0.465 -1.742,-0.465c-0.621,-0 -1.194,0.151 -1.719,0.453c-0.525,0.302 -0.95,0.744 -1.276,1.325c-0.327,0.58 -0.49,1.268 -0.49,2.064c0,0.795 0.163,1.492 0.49,2.088c0.326,0.597 0.755,1.054 1.288,1.372c0.533,0.319 1.102,0.478 1.707,0.478c0.62,-0 1.201,-0.155 1.742,-0.466c0.541,-0.31 0.97,-0.755 1.289,-1.336c0.318,-0.581 0.477,-1.277 0.477,-2.088Z" style="fill-rule:nonzero;"/><path d="M42.862,12.052c-0,-1.337 0.266,-2.522 0.799,-3.556c0.533,-1.034 1.257,-1.83 2.172,-2.387c0.915,-0.556 1.937,-0.835 3.067,-0.835c0.986,0 1.849,0.199 2.589,0.597c0.74,0.398 1.333,0.899 1.778,1.503l0,-1.885l3.365,0l0,13.221l-3.365,0l0,-1.933c-0.429,0.621 -1.022,1.134 -1.778,1.54c-0.755,0.405 -1.627,0.608 -2.613,0.608c-1.114,0 -2.128,-0.286 -3.043,-0.859c-0.915,-0.573 -1.639,-1.38 -2.172,-2.422c-0.533,-1.042 -0.799,-2.24 -0.799,-3.592Zm10.405,0.048c0,-0.812 -0.159,-1.508 -0.477,-2.089c-0.318,-0.58 -0.748,-1.026 -1.289,-1.336c-0.541,-0.31 -1.121,-0.465 -1.742,-0.465c-0.62,-0 -1.193,0.151 -1.718,0.453c-0.525,0.302 -0.951,0.744 -1.277,1.325c-0.326,0.58 -0.489,1.268 -0.489,2.064c-0,0.795 0.163,1.492 0.489,2.088c0.326,0.597 0.756,1.054 1.289,1.372c0.533,0.319 1.101,0.478 1.706,0.478c0.621,-0 1.201,-0.155 1.742,-0.466c0.541,-0.31 0.971,-0.755 1.289,-1.336c0.318,-0.581 0.477,-1.277 0.477,-2.088Z" style="fill-rule:nonzero;"/><path d="M57.897,10.358c0,-1.639 0.37,-3.107 1.11,-4.404c0.74,-1.296 1.75,-2.307 3.031,-3.031c1.28,-0.723 2.716,-1.085 4.307,-1.085c1.862,-0 3.493,0.477 4.893,1.432c1.4,0.954 2.378,2.275 2.935,3.961l-3.842,0c-0.382,-0.795 -0.919,-1.392 -1.611,-1.79c-0.692,-0.397 -1.492,-0.596 -2.399,-0.596c-0.97,-0 -1.833,0.226 -2.589,0.68c-0.756,0.453 -1.344,1.094 -1.766,1.921c-0.422,0.827 -0.632,1.798 -0.632,2.912c-0,1.097 0.21,2.064 0.632,2.899c0.422,0.835 1.01,1.48 1.766,1.933c0.756,0.454 1.619,0.68 2.589,0.68c0.907,0 1.707,-0.202 2.399,-0.608c0.692,-0.406 1.229,-1.007 1.611,-1.802l3.842,-0c-0.557,1.702 -1.531,3.027 -2.923,3.974c-1.392,0.946 -3.027,1.42 -4.905,1.42c-1.591,-0 -3.027,-0.362 -4.307,-1.086c-1.281,-0.724 -2.291,-1.731 -3.031,-3.019c-0.74,-1.289 -1.11,-2.753 -1.11,-4.391Z" style="fill-rule:nonzero;"/><path d="M77.538,3.914c-0.589,-0 -1.078,-0.187 -1.468,-0.561c-0.389,-0.374 -0.584,-0.839 -0.584,-1.396c-0,-0.557 0.195,-1.022 0.584,-1.396c0.39,-0.374 0.879,-0.561 1.468,-0.561c0.589,0 1.078,0.187 1.468,0.561c0.39,0.374 0.585,0.839 0.585,1.396c-0,0.557 -0.195,1.022 -0.585,1.396c-0.39,0.374 -0.879,0.561 -1.468,0.561Zm1.647,1.575l-0,13.221l-3.341,0l-0,-13.221l3.341,0Z" style="fill-rule:nonzero;"/><path d="M85.175,8.234l0,6.395c0,0.446 0.107,0.768 0.322,0.967c0.215,0.199 0.577,0.298 1.086,0.298l1.551,0l0,2.816l-2.1,0c-2.816,0 -4.224,-1.368 -4.224,-4.104l0,-6.372l-1.575,-0l-0,-2.745l1.575,0l0,-3.27l3.365,0l0,3.27l2.959,0l0,2.745l-2.959,-0Z" style="fill-rule:nonzero;"/><path d="M102,5.489l-8.186,19.474l-3.556,0l2.864,-6.587l-5.298,-12.887l3.747,0l3.413,9.236l3.46,-9.236l3.556,0Z" style="fill-rule:nonzero;"/></g><path d="M102,32.116c-0,1.216 -0.524,2.374 -1.437,3.177c-0.914,0.803 -2.128,1.174 -3.335,1.018c-30.059,-3.745 -60.858,-2.251 -92.449,0.252c-1.232,0.098 -2.448,-0.323 -3.355,-1.161c-0.908,-0.839 -1.424,-2.018 -1.424,-3.253c-0,-0 -0,-0.001 -0,-0.001c0,-1.286 0.511,-2.518 1.419,-3.427c0.909,-0.909 2.142,-1.419 3.427,-1.419c17.199,-0 75.197,-0 92.342,-0c1.276,-0 2.5,0.507 3.403,1.409c0.902,0.902 1.409,2.126 1.409,3.403c-0,0 -0,0.001 -0,0.002Z"/><rect x="14.439" y="32.682" width="9" height="17.318"/><rect x="28.439" y="32.682" width="9" height="34.318"/><rect x="42.439" y="32.682" width="9" height="19.02"/><rect x="56.439" y="32.682" width="9" height="25.824"/><rect x="72.439" y="32.682" width="9" height="13.185"/></svg>